<svg width="309" height="295" version="1.0" xmlns="http://www.w3.org/2000/svg"><g style="font-style:normal;font-weight:400;line-height:0%;font-family:'Times New Roman';text-align:start;text-anchor:start;fill:#7822be;fill-opacity:1;stroke:none;stroke-width:1px;stroke-linecap:butt;stroke-linejoin:miter;stroke-opacity:1"><path d="M469.716 712.243q26.562 0 40.234-8.985 13.867-8.984 18.36-21.875 4.687-12.89 6.054-42.968 1.367-33.399 14.844-49.61Q562.88 572.4 593.934 572.4v7.422q-11.133.781-15.234 8.789-3.906 7.812-3.906 33.398 0 37.5-8.008 58.008-7.813 20.313-31.64 33.008-23.829 12.695-65.43 13.672v61.914q0 22.851 2.539 29.687 2.734 6.641 11.132 10.743 8.594 4.101 26.368 4.101v7.227H392.176v-7.227q17.383-.195 25.782-3.71 8.593-3.712 11.328-10.548 2.93-7.031 2.93-30.273v-61.914q-41.993-.977-65.235-13.477-23.242-12.5-31.64-32.617-8.204-20.312-8.204-58.789 0-24.61-3.71-32.617-3.711-8.203-15.43-9.375v-7.422q19.726.39 31.836 6.25t19.336 20.703q7.422 14.844 8.398 39.063 1.367 29.882 5.664 42.773 4.492 12.89 18.555 22.07 14.062 8.985 40.43 8.985v-85.157q0-22.851-2.735-29.492-2.539-6.836-10.937-10.742-8.399-3.906-26.368-4.102v-7.226h117.579v7.226q-17.97.196-26.368 4.102-8.398 3.711-11.132 10.547-2.54 6.836-2.54 29.687z" style="font-size:400px;line-height:1.25;text-align:center;text-anchor:middle;fill:#7822be;fill-opacity:1" transform="translate(-297.082 -560.569)" aria-label="Ψ"/></g></svg>
